Patient4_TMGait_0pt3_03_left_24_GRF.mot
version=1
nRows=51
nColumns=19
inDegrees=no
endheader
time	F1x	F1y	F1z	M1x	M1y	M1z	F2x	F2y	F2z	M2x	M2y	M2z	EC1x	EC1y	EC1z	EC2x	EC2y	EC2z
41.97	-2.1644	1.5715	-4.0907	-0.0097124	3.0983	3.5052	-19.0278	681.8101	-55.0201	227.5641	61.3213	651.1121	-0.0592	0.0182	-0.0073	-0.0462	0.0165	0.9585
41.9888	-1.5661	1.2113	-2.745	-0.06793	2.028	2.5533	-19.0496	691.7105	-55.1889	230.287	61.6307	660.4555	-0.0592	0.0182	-0.0073	-0.0462	0.0165	0.9585
42.0076	-1.0548	0.93106	-1.5976	-0.12775	1.1209	1.7608	-19.2845	707.5012	-55.4144	235.0723	61.9643	674.7345	-0.0592	0.0182	-0.0073	-0.0462	0.0165	0.9585
42.0264	-0.66353	0.74692	-0.71781	-0.18444	0.42562	1.1753	-19.6689	730.134	-55.6074	242.3198	62.1961	694.7082	-0.0592	0.0182	-0.0073	-0.0462	0.0165	0.9585
42.0451	-0.39303	0.65297	-0.10312	-0.23572	-0.062823	0.79854	-20.0534	759.5333	-55.6605	252.0576	62.1696	720.2465	-0.0592	0.0182	-0.0073	-0.0462	0.0165	0.9585
42.0639	-0.22769	0.6278	0.28788	-0.28081	-0.37678	0.60044	-20.2664	794.1979	-55.4843	263.7978	61.7433	749.9543	-0.0592	0.0182	-0.0073	-0.0462	0.0165	0.9585
42.0827	-0.14588	0.63598	0.50771	-0.31561	-0.55884	0.52729	-20.1801	831.1933	-55.0234	276.5337	60.8268	781.1712	-0.0592	0.0182	-0.0073	-0.0462	0.0165	0.9585
42.1015	-0.12654	0.63141	0.60556	-0.32927	-0.64915	0.51098	-19.7248	866.5431	-54.2622	288.8774	59.3898	810.3365	-0.0592	0.0182	-0.0073	-0.0462	0.0165	0.9585
42.1203	-0.15539	0.55529	0.62369	-0.30495	-0.68426	0.46789	-18.8493	895.9141	-53.2254	299.2992	57.4528	833.6045	-0.0592	0.0182	-0.0073	-0.0462	0.0165	0.9585
42.1391	-0.22819	0.33937	0.59449	-0.22131	-0.69261	0.3069	-17.5183	915.4733	-51.9641	306.4328	55.0725	847.6163	-0.0592	0.0182	-0.0073	-0.0462	0.0165	0.9585
42.1579	-0.34581	-0.088958	0.53969	-0.053455	-0.6942	-0.05925	-15.7245	922.6938	-50.5325	309.3597	52.3248	850.2173	-0.0592	0.0182	-0.0073	-0.0462	0.0165	0.9585
42.1766	-0.50396	-0.79496	0.46987	0.223	-0.69861	-0.70905	-13.4706	916.7916	-48.9953	307.7635	49.3037	840.8327	-0.0592	0.0182	-0.0073	-0.0462	0.0165	0.9585
42.1954	-0.68561	-1.8226	0.38824	0.62601	-0.70265	-1.7008	-10.7604	898.7202	-47.4418	301.9336	46.1295	820.4429	-0.0592	0.0182	-0.0073	-0.0462	0.0165	0.9585
42.2142	-0.85925	-3.1749	0.29639	1.1565	-0.69342	-3.0406	-7.6128	870.8554	-45.9842	292.6598	42.9463	791.2852	-0.0592	0.0182	-0.0073	-0.0462	0.0165	0.9585
42.233	-0.9757	-4.7785	0.19679	1.7846	-0.64894	-4.654	-4.0748	836.4801	-44.7359	281.0553	39.9021	756.3758	-0.0592	0.0182	-0.0073	-0.0462	0.0165	0.9585
42.2518	-0.96748	-6.433	0.090883	2.4299	-0.54225	-6.3413	-0.21155	799.2176	-43.7821	268.3646	37.1159	718.9907	-0.0592	0.0182	-0.0073	-0.0462	0.0165	0.9585
42.2706	-0.74597	-7.7528	-0.018645	2.9406	-0.34348	-7.7133	3.9023	762.5785	-43.1504	255.8088	34.6494	682.2626	-0.0592	0.0182	-0.0073	-0.0462	0.0165	0.9585
42.2894	-0.19941	-8.1083	-0.12261	3.0735	-0.021866	-8.1342	8.1825	729.6179	-42.7985	244.4635	32.493	648.8765	-0.0592	0.0182	-0.0073	-0.0462	0.0165	0.9585
42.3081	0.79876	-6.5779	-0.20151	2.474	0.4492	-6.6762	12.5307	702.5977	-42.6294	235.1367	30.5844	620.7921	-0.0592	0.0182	-0.0073	-0.0462	0.0165	0.9585
42.3269	2.3623	-1.9418	-0.21846	0.67051	1.0776	-2.1129	16.8171	682.6529	-42.5294	228.2466	28.8528	598.9804	-0.0592	0.0182	-0.0073	-0.0462	0.0165	0.9585
42.3457	4.5553	7.255	-0.11972	-2.9002	1.8383	7.0262	20.8742	669.5857	-42.3898	223.7483	27.2422	583.27	-0.0592	0.0182	-0.0073	-0.0462	0.0165	0.9585
42.3645	7.3369	22.522	0.1657	-8.8217	2.648	22.2753	24.5073	661.9049	-42.1108	221.1442	25.7139	572.4048	-0.0592	0.0182	-0.0073	-0.0462	0.0165	0.9585
42.3833	10.4736	45.0866	0.72091	-17.5649	3.334	44.8977	27.4888	657.0861	-41.6064	219.5739	24.2547	564.2962	-0.0592	0.0182	-0.0073	-0.0462	0.0165	0.9585
42.4021	13.3504	75.418	1.6308	-29.305	3.5717	75.4114	29.5683	652.0017	-40.8029	217.962	22.8758	556.3959	-0.0592	0.0182	-0.0073	-0.0462	0.0165	0.9585
42.4209	14.8875	112.7613	3.0015	-43.7396	2.837	113.1245	30.5187	643.5447	-39.6333	215.2331	21.5908	546.205	-0.0592	0.0182	-0.0073	-0.0462	0.0165	0.9585
42.4396	14.3461	155.2162	5.0056	-60.1125	0.66619	156.2014	30.2106	629.3235	-38.0589	210.55	20.4077	531.8179	-0.0592	0.0182	-0.0073	-0.0462	0.0165	0.9585
42.4584	11.8226	199.9365	7.8407	-77.2991	-3.1178	201.7826	28.6787	608.1309	-36.0972	203.4776	19.3312	512.2658	-0.0592	0.0182	-0.0073	-0.0462	0.0165	0.9585
42.4772	7.9523	243.5116	11.4296	-93.9848	-8.2036	246.3425	26.1509	580.1582	-33.8233	194.0635	18.349	487.6631	-0.0592	0.0182	-0.0073	-0.0462	0.0165	0.9585
42.496	3.5446	283.1227	15.2304	-109.1189	-13.7236	286.9368	23.0141	546.9178	-31.3677	182.8173	17.44	459.1474	-0.0592	0.0182	-0.0073	-0.0462	0.0165	0.9585
42.5148	-0.77689	317.4901	18.6584	-122.2501	-18.8438	322.2072	19.7279	510.7786	-28.9085	170.5498	16.5956	428.5187	-0.0592	0.0182	-0.0073	-0.0462	0.0165	0.9585
42.5336	-4.6492	346.7405	21.374	-133.4513	-23.0885	352.2506	16.7108	474.2978	-26.6326	158.1413	15.8223	397.737	-0.0592	0.0182	-0.0073	-0.0462	0.0165	0.9585
42.5524	-7.9033	371.7665	23.2921	-143.0654	-26.3167	377.9711	14.2268	439.5999	-24.6729	146.3267	15.133	368.4457	-0.0592	0.0182	-0.0073	-0.0462	0.0165	0.9585
42.5711	-10.4909	393.6309	24.55	-151.478	-28.6505	400.4596	12.3701	408.0071	-23.0691	135.5689	14.5272	341.6764	-0.0592	0.0182	-0.0073	-0.0462	0.0165	0.9585
42.5899	-12.4452	413.1632	25.4238	-158.9702	-30.3759	420.5647	11.1293	380.0225	-21.7971	126.0503	13.9888	317.821	-0.0592	0.0182	-0.0073	-0.0462	0.0165	0.9585
42.6087	-13.8722	430.9683	26.1986	-165.7361	-31.8128	438.8964	10.4395	355.5264	-20.8109	117.7373	13.5006	296.7844	-0.0592	0.0182	-0.0073	-0.0462	0.0165	0.9585
42.6275	-14.9227	447.6359	27.0584	-171.9735	-33.1932	456.0445	10.2083	334.0374	-20.0527	110.4706	13.0451	278.1886	-0.0592	0.0182	-0.0073	-0.0462	0.0165	0.9585
42.6463	-15.7331	463.778	28.0586	-177.902	-34.6175	472.6048	10.3382	314.9231	-19.445	104.0401	12.5906	261.5388	-0.0592	0.0182	-0.0073	-0.0462	0.0165	0.9585
42.6651	-16.3931	479.9102	29.1927	-183.7181	-36.1098	489.0603	10.7292	297.4922	-18.8878	98.2152	12.0894	246.2988	-0.0592	0.0182	-0.0073	-0.0462	0.0165	0.9585
42.6839	-16.9494	496.3202	30.4402	-189.5423	-37.66	505.6735	11.2678	281.0154	-18.2868	92.7509	11.4999	231.9025	-0.0592	0.0182	-0.0073	-0.0462	0.0165	0.9585
42.7026	-17.396	513.0257	31.778	-195.3969	-39.2313	522.4302	11.8212	264.7681	-17.5775	87.4001	10.8127	217.7862	-0.0592	0.0182	-0.0073	-0.0462	0.0165	0.9585
42.7214	-17.6788	529.8522	33.1818	-201.2355	-40.7652	539.1041	12.2373	248.0894	-16.7415	81.9325	10.0615	203.4429	-0.0592	0.0182	-0.0073	-0.0462	0.0165	0.9585
42.7402	-17.7421	546.61	34.6318	-207.0063	-42.2072	555.448	12.3554	230.4231	-15.7947	76.1497	9.3085	188.4468	-0.0592	0.0182	-0.0073	-0.0462	0.0165	0.9585
42.759	-17.5488	563.2479	36.1276	-212.7096	-43.5307	571.361	12.0345	211.3708	-14.7687	69.9057	8.6216	172.4843	-0.0592	0.0182	-0.0073	-0.0462	0.0165	0.9585
42.7778	-17.0948	579.9112	37.6963	-218.4163	-44.7492	586.9542	11.1846	190.8143	-13.6978	63.1508	8.0575	155.4546	-0.0592	0.0182	-0.0073	-0.0462	0.0165	0.9585
42.7966	-16.4329	596.863	39.39	-224.2328	-45.9297	602.4864	9.7939	168.9866	-12.6118	55.9572	7.6446	137.5291	-0.0592	0.0182	-0.0073	-0.0462	0.0165	0.9585
42.8154	-15.6733	614.3506	41.2733	-230.2515	-47.1831	618.2334	7.9456	146.4126	-11.5344	48.4971	7.3762	119.1025	-0.0592	0.0182	-0.0073	-0.0462	0.0165	0.9585
42.8341	-14.9468	632.5036	43.3955	-236.5185	-48.6179	634.3712	5.8029	123.7808	-10.476	40.9996	7.2082	100.6949	-0.0592	0.0182	-0.0073	-0.0462	0.0165	0.9585
42.8529	-14.3754	651.289	45.7533	-243.0232	-50.2873	650.9186	3.5719	101.8154	-9.4321	33.7089	7.0669	82.8582	-0.0592	0.0182	-0.0073	-0.0462	0.0165	0.9585
42.8717	-14.0546	670.5132	48.2888	-249.699	-52.181	667.7194	1.4619	81.158	-8.3818	26.8441	6.8637	66.0896	-0.0592	0.0182	-0.0073	-0.0462	0.0165	0.9585
42.8905	-14.0313	689.9223	50.9137	-256.4641	-54.2394	684.5331	-0.3553	62.3172	-7.2966	20.5822	6.5197	50.7936	-0.0592	0.0182	-0.0073	-0.0462	0.0165	0.9585
42.9093	-14.3016	709.3605	53.5276	-263.2787	-56.3691	701.1868	-1.7568	45.6825	-6.1533	15.0586	5.9798	37.285	-0.0592	0.0182	-0.0073	-0.0462	0.0165	0.9585
